<svg xmlns="http://www.w3.org/2000/svg" viewBox="0 0 400 400">
  <path fill="currentColor" d="M174.6 1.2C11.3 22.5-58 220.7 56.2 339.4c102.1 105.8 281.2 67.8 332-70.6 51.5-140-65.8-287-213.6-267.6m47 27.3C364 47.2 423.3 220.5 321.9 322 227.1 416.8 65.3 372 32.4 241.8 2.9 124.9 102.3 12.9 221.6 28.5M194 81c-8.3 4.5-7.8.3-7.8 65.6v57l1.9 3.1c2.8 5 70.9 59 75.5 60 11.3 2.6 20.5-9.5 15-19.6-1.3-2.4-9-9-33.2-28.3l-31.4-25-.2-52.2c-.3-58 0-54.7-5.8-59.2-3.5-2.7-10.3-3.4-14-1.4" fill-rule="evenodd"/>
</svg>