<svg xmlns="http://www.w3.org/2000/svg" viewBox="0 0 400 400">
  <path fill="currentColor" d="M128 34a15.6 15.6 0 0 0-9 6.8l-2.2 3.2-.2 144.3-.2 144.4-10.7.2c-10.1.3-11 .4-14.5 2.5-10.9 6.4-10.9 22.8 0 29.2l3.7 2.2h76.6l3.5-2c5.9-3.3 8.2-7.5 8.2-14.8 0-12.3-5.8-16.6-22.5-17l-10.7-.3V217.2l102.5-.2c93.8-.2 102.8-.3 105-1.5a17.6 17.6 0 0 0 9-20c-.7-2.4-6.9-11.3-22-31.4a2509 2509 0 0 1-22-29.6c-.7-1.2 1.8-4.9 20.3-29.6A941 941 0 0 0 365 74.5c4.2-8.2.8-18.8-7.3-23-3-1.5-5-1.5-105.4-1.5H150v-2.4c0-9.6-12.2-17.2-22-13.7" fill-rule="evenodd"/>
</svg>