<svg xmlns="http://www.w3.org/2000/svg" viewBox="0 0 400 400">
  <path fill="currentColor" d="M191.5 1.3c-2.9 2-5 7.4-10.3 27.4l-5 18.8-8.4 1.7c-27.3 5.3-54.8 19-75.5 37.7-4.4 4-5.1 4.4-6.6 3.6l-15-8.5C50.1 70.2 48.1 69.5 43.2 71.5c-8.7 3.6-7.6 8.4 7.8 34.2l10.6 17.9-3.8 7.1c-7.4 13.8-14.4 35-16 48.4l-.6 4.5H38a218 218 0 0 0-30.8 7.6c-9.7 3.6-9.8 13.6-.2 17.8 3.4 1.5 29.2 8.2 31.7 8.2 1.6 0 1.8.5 2.3 4 2.3 18.1 7.9 36.8 15.6 52.1 3.5 7.1 4 5-5.7 21.5C37 318 35.6 322 40.3 326.8c4.7 4.7 8.7 3.7 28.5-7.6l14.4-8.2 5.9 5.7c22.5 21.9 51.4 36.4 83.4 42 3 .5 5.6 1 5.6 1.2l4.3 16c6 21.5 7.5 24.1 14.2 24.1 6.8 0 8.6-3.1 14.7-25.8 4.3-16.2 2.6-13.7 10.6-14.8a159 159 0 0 0 87.7-41.2 33 33 0 0 1 6.7-5.4l11.4 6.5c20 11.4 23.3 12.3 28 7.5 4.6-4.5 3.2-9.3-7.9-28.1-10.2-17.3-9.6-15-5.3-23.1 8.3-15.4 16.9-43.9 16.9-56.2 0-1.8.3-2.2 1.9-2.2 5.1 0 32.7-8 35.6-10.4 4.6-3.6 4-10.9-1-14.4-3-2-27.8-8.8-33.1-9l-3.7-.2-1.3-7.4a161.2 161.2 0 0 0-19.6-52.4l-1.7-2.9 9-15.3c14.7-24.7 16-29.8 9-33.1-5.5-2.7-8.8-1.6-27.2 8.8l-15.7 9-4.3-3.7c-25-21.7-50.5-33.2-86.5-39l-3.9-.7-5.2-19.2c-6.1-22.4-6.1-22.5-9.3-25.2-3-2.5-8-2.8-10.9-.8M205 57.8a477 477 0 0 1 8.1 32.4c-.3 2.3-32.8 2.5-33.3.2-.2-1.2 16.4-64 16.8-63.6 0 0 3.9 14 8.4 31M88.1 108.3c31.9 18 29.7 16.8 30.2 18A136 136 0 0 1 95 149c-1.5.2-3.1-2-11.7-16.8l-16.6-28.1A115 115 0 0 1 60.6 93c.3 0 12.6 6.9 27.5 15.3M335 94.7 318.4 123c-12.4 21.1-15.8 26.3-17 26.3-2.7 0-23.9-21.5-22.9-23 .8-1.2 55.4-33 57-33.2.3 0 .1.8-.5 1.7m-130.3 87.4c15.5 7 15.7 28.5.4 35.6-19.3 9-36.8-16.1-21.8-31.3a19.7 19.7 0 0 1 21.4-4.3m-97.5 79.6c9.1 8.8 11 11 10.4 12.1-.8 1.3-56 33.2-56.6 32.8-.3-.3 28.6-49.6 31.4-53.7 2.3-3.3 3-2.9 14.8 8.8m197-8c4 6.2 31 52.7 30.8 53-.5.4-55.7-31.6-56.5-32.8-.9-1.5 20.2-23.1 22.5-23.1.7 0 2.2 1.3 3.2 3m-91 56c.1 1.3-16 62.6-16.7 63.4a73810.5 73810.5 0 0 0-10.5-37.7c-5.2-19.1-6.8-26-6.2-26.7 1.7-2 33-1 33.3 1" fill-rule="evenodd"/>
</svg>
