<svg xmlns="http://www.w3.org/2000/svg"  viewBox="0 0 400 400">
  <path fill="currentColor" d="M237.8 12.5c-3.4 7-15.4 32.3-26.5 56-11.2 23.8-20.5 43.1-20.7 43-.3 0-14.1-15.1-30.8-33.4-35.5-38.9-33.1-36.3-33.6-35.9-.2.2 2.1 22.7 5 50 3 27.2 5.4 49.6 5.3 49.7L78.9 133c-31.6-4.9-57.9-8.8-58.5-8.7-.6.1 17 16.5 39.3 36.4 22.1 19.9 40.3 36.4 40.3 36.7 0 .3-20.3 12.3-45 26.7a865.2 865.2 0 0 0-44.3 26.6c.4.3 21.4 1.9 46.7 3.5a2268 2268 0 0 1 49.1 3.4l3 .5L75 312.4c-19 29.8-34.3 54.4-34 54.6.1.1 24.5-14.9 54-33.4l53.8-33.7.3 3 3.9 49.8c2 25.8 4 46.8 4.3 46.8.4-.1 11.8-21.4 25.3-47.3 13.5-26 24.8-47.4 25.1-47.7a914 914 0 0 1 35.5 40c19.3 22.3 35.5 41 36.1 41.5 1.7 1.3 2 3.6-6.2-56-4-29.6-7.3-53.9-7.2-54l55.6 8c30.5 4.5 55.8 8 56.1 8 .4-.2-17.7-16.3-40.3-35.8l-41-35.6 46.4-26.4c42.8-24.4 48.4-27.7 46.6-27.8-6.6-.4-94.9-8.4-95.2-8.7-.2-.3 14.5-24.3 32.7-53.5C345 75 359.6 51.1 359.3 51A1855 1855 0 0 0 306.2 82a3640 3640 0 0 1-52.7 31.1c0-.1-2-24.1-4.2-53.3C247 30.5 244.9 5 244.6 3L244-.4l-6.2 12.9M223 150.8c.7 10 1.4 18.4 1.5 18.6l16.8-9.7c9-5.4 16.7-9.7 16.8-9.6.1.2-4.6 8.1-10.6 17.7-11 17.7-11.7 19-10 19a810 810 0 0 1 42.3 3.8c.3.3-8.6 5.7-19.8 12a477 477 0 0 0-20.7 12.2c-.1.4 6.7 6.7 15.3 14.1 8.6 7.4 15.5 13.6 15.4 13.7-.1.2-9.8-1.1-21.6-2.8-11.8-1.7-21.5-3-21.6-2.9l2.8 21.7c1.6 11.8 2.9 21.6 2.8 21.7-.1 0-7.2-7.9-15.7-17.8s-15.6-18-15.7-18c-.1 0-4.5 8.3-9.7 18.5a124.6 124.6 0 0 1-10.1 17.7c-.5-.5-3.3-32.7-3.2-36.8 0-1.7-1.2-1-16.2 8.3l-14.8 9.3 10.5-16.5a145 145 0 0 0 9.8-16.7l-23.1-1.7c-12.4-.8-22.7-1.6-23-1.8-.1-.2 7.8-5 17.7-10.8a222 222 0 0 0 17.8-11c0-.2-7.3-6.8-16-14.6a258 258 0 0 1-15.2-14.2l24.2 3.7c13 2 23.8 3.4 24.1 3.1.3-.2-.4-9.3-1.6-20-1.2-10.7-2-20-1.9-20.4.2-.4 6.8 6.3 14.6 14.9a182 182 0 0 0 14.9 15.3c.3-.2 5.1-10 10.7-22 11.8-25.2 10.4-25.4 12.5 2" fill-rule="evenodd"/>
</svg>
